<svg width="159" height="32" viewBox="0 0 159 32" fill="none" xmlns="http://www.w3.org/2000/svg">
<g clip-path="url(#clip0_117_56)">
<path d="M22.6248 15.3369L21.8692 19.0948L21.1256 15.185L18.2187 1.14954H12.826L10.0635 15.2694L9.35843 19.0948L8.65576 15.1874L5.4264 1.14954H0L6.9352 25.6651H11.6806L14.6356 11.3282L15.4971 6.5886L16.361 11.3282L19.3136 25.6651H24.2082L31.0881 1.14954H25.8855L22.6248 15.3369Z" fill="#EEE0DD"/>
<path d="M43.0165 7.10477C41.6016 7.10477 40.4489 7.47622 39.5658 8.21911C39.0243 8.66292 38.3866 9.48782 37.6575 10.6962V7.53652H33.1431V25.6651H37.9054V17.0012C37.9054 15.5492 38.0882 14.4734 38.454 13.7739C39.1061 12.5318 40.3839 11.9119 42.2874 11.9119C42.4318 11.9119 42.6195 11.9167 42.8505 11.9288C43.0839 11.9408 43.3486 11.9625 43.647 11.9963V7.14095C43.4376 7.1313 43.3005 7.12165 43.2403 7.11683C43.1801 7.112 43.1055 7.10959 43.0165 7.10959V7.10477Z" fill="#EEE0DD"/>
<path d="M51.28 1H46.4841V5.37296H51.28V1Z" fill="#EEE0DD"/>
<path d="M51.28 7.53653H46.4841V25.6651H51.28V7.53653Z" fill="#EEE0DD"/>
<path d="M72.5188 3.18768H67.8384V7.53652H61.2016V3.18768H56.5211V7.53652H53.9993V11.0797H56.5211V22.2401C56.5211 23.3713 56.7858 24.2083 57.3177 24.751C58.1358 25.6048 59.6615 25.9931 61.897 25.916L64.1373 25.8339V22.2907C63.9833 22.3028 63.8245 22.31 63.6657 22.3148C63.5045 22.3197 63.3529 22.3221 63.2085 22.3221C62.2459 22.3221 61.6708 22.2304 61.4831 22.0471C61.2954 21.8638 61.2016 21.4007 61.2016 20.6578V11.0773H67.8384V22.2377C67.8384 23.3689 68.1031 24.2058 68.6349 24.7485C69.4531 25.6024 70.9811 25.9907 73.2142 25.9135L75.4546 25.8315V22.2883C75.3006 22.3004 75.1417 22.3076 74.9829 22.3124C74.8217 22.3173 74.6701 22.3197 74.5257 22.3197C73.5632 22.3197 72.988 22.228 72.8003 22.0447C72.6126 21.8614 72.5188 21.3983 72.5188 20.6554V11.0749H75.4546V7.53169H72.5188V3.18768Z" fill="#EEE0DD"/>
<path d="M93.4038 10.5853C92.5808 9.3648 91.5388 8.46995 90.2779 7.90313C89.017 7.33631 87.5996 7.05411 86.0234 7.05411C83.374 7.05411 81.2179 7.89107 79.5551 9.56741C77.8946 11.2438 77.0644 13.6509 77.0644 16.7914C77.0644 20.144 77.9837 22.5633 79.8246 24.0491C81.6655 25.5348 83.7879 26.2802 86.1943 26.2802C89.1108 26.2802 91.3776 25.3998 92.9995 23.6366C94.0415 22.5271 94.6262 21.4369 94.7538 20.3611H89.9266C89.645 20.8942 89.3202 21.309 88.9544 21.6081C88.2806 22.1629 87.4071 22.4403 86.329 22.4403C85.3135 22.4403 84.4448 22.2135 83.7205 21.7577C82.5342 21.0268 81.9037 19.7509 81.8291 17.9322H95.0016C95.0257 16.3668 94.9728 15.1681 94.8452 14.3335C94.6262 12.9129 94.145 11.6634 93.4038 10.5853ZM81.9446 14.8039C82.1154 13.6244 82.5366 12.6885 83.2055 11.9987C83.8745 11.3089 84.8154 10.964 86.0282 10.964C87.1448 10.964 88.0785 11.2896 88.8341 11.9408C89.5873 12.5921 90.0084 13.5472 90.095 14.8063H81.947L81.9446 14.8039Z" fill="#EEE0DD"/>
<path d="M111.976 8.57609C110.792 7.5944 109.269 7.10477 107.409 7.10477C105.922 7.10477 104.692 7.47139 103.725 8.20223C103.186 8.61227 102.613 9.2828 102.007 10.2138V7.57028H97.4272V25.6651H102.156V15.8531C102.156 14.7339 102.31 13.8125 102.618 13.0914C103.21 11.7286 104.302 11.046 105.895 11.046C107.19 11.046 108.068 11.5115 108.53 12.4425C108.783 12.9539 108.908 13.6847 108.908 14.6374V25.6651H113.752V13.458C113.752 11.1859 113.16 9.55777 111.976 8.57609Z" fill="#EEE0DD"/>
<path d="M134.897 12.5101C135.72 12.088 136.341 11.6224 136.762 11.1135C137.518 10.2042 137.895 9.00059 137.895 7.50515C137.895 6.00971 137.52 4.80613 136.772 3.76414C135.528 2.06851 133.415 1.19778 130.433 1.15195H118.613V25.6675H129.634C130.876 25.6675 132.029 25.5566 133.09 25.3347C134.151 25.1128 135.073 24.7027 135.852 24.1045C136.545 23.5835 137.123 22.9395 137.585 22.1749C138.312 21.022 138.675 19.7195 138.675 18.2675C138.675 16.8155 138.357 15.6625 137.722 14.676C137.087 13.6895 136.146 12.9683 134.897 12.5149V12.5101ZM123.493 5.40913H128.814C129.986 5.40913 130.948 5.53696 131.704 5.79263C132.58 6.15926 133.018 6.9118 133.018 8.05509C133.018 9.08743 132.686 9.80379 132.024 10.209C131.362 10.6142 130.501 10.8168 129.437 10.8168H123.493V5.41154V5.40913ZM131.908 20.9762C131.316 21.2656 130.491 21.4079 129.432 21.4079H123.496V14.8714H129.516C130.566 14.8835 131.381 15.0209 131.961 15.2863C133.001 15.7638 133.521 16.6394 133.521 17.9129C133.521 19.4204 132.984 20.4407 131.913 20.9738L131.908 20.9762Z" fill="#EEE0DD"/>
<path d="M153.766 7.53653L150.033 20.9087L146.084 7.53653H140.824L147.47 26.4635C147.504 26.5961 147.401 26.9628 147.162 27.561C146.924 28.1591 146.667 28.5523 146.39 28.7428C146.101 28.943 145.747 29.0709 145.329 29.1263C144.908 29.1818 144.465 29.1987 144 29.177L143.404 29.1432V32.9349C143.914 32.9687 144.294 32.9879 144.549 32.9928C144.804 32.9976 145.141 33 145.562 33C147.656 33 149.051 32.5876 149.749 31.7602C150.447 30.9353 151.395 28.8031 152.594 25.366L158.795 7.53653H153.768H153.766Z" fill="#EEE0DD"/>
</g>
<defs>
<clipPath id="clip0_117_56">
<rect width="158.792" height="32" fill="white"/>
</clipPath>
</defs>
</svg>
